Coordinates
version=1
nRows=13
nColumns=34
inDegrees=yes

Units are S.I. units (second, meters, Newtons, ...)
If the header above contains a line with 'inDegrees', this indicates whether rotational values are in degrees (yes) or radians (no).

endheader
time	pelvis_tilt	pelvis_list	pelvis_rotation	pelvis_tx	pelvis_ty	pelvis_tz	hip_flexion_r	hip_adduction_r	hip_rotation_r	knee_angle_r	ankle_angle_r	subtalar_angle_r	mtp_angle_r	hip_flexion_l	hip_adduction_l	hip_rotation_l	knee_angle_l	ankle_angle_l	subtalar_angle_l	mtp_angle_l	lumbar_extension	lumbar_bending	lumbar_rotation	arm_flex_r	arm_add_r	arm_rot_r	elbow_flex_r	pro_sup_r	arm_flex_l	arm_add_l	arm_rot_l	elbow_flex_l	pro_sup_l
      4.25000000	     -3.50615601	      2.17649429	    -11.94594042	     -0.04886852	      1.21081941	     -0.10613452	      0.04325617	     -0.15061466	      1.29251133	      0.00000000	      4.82900527	      4.17650673	      0.00000000	     -0.60716474	      4.63161095	    -11.58718495	      0.00000000	     -0.72881730	     -0.48884301	      0.00000000	     -0.77687973	     -0.29612131	     -1.02828450	      9.94464865	     -4.78335491	     12.17255941	     22.76181335	     69.81350678	      8.20431344	     -9.03668340	     16.57580488	     25.97850608	     58.76570337
      4.26666670	     -3.39605684	      2.16763012	    -11.85089924	     -0.04820911	      1.21066779	     -0.10810178	     -0.20726547	     -0.24945617	      1.15030054	      0.00000000	      4.97459139	      4.06646441	      0.00000000	     -0.86021826	      4.72398750	    -11.62561505	      0.00000000	     -0.65462349	     -0.48026446	      0.00000000	     -0.71545443	     -0.13588917	     -1.20102143	      9.26137667	     -5.07132136	     12.05528968	     22.45745529	     69.81985454	      7.61569665	     -8.74314173	     16.64079683	     25.77820613	     58.81383414
      4.28333330	     -3.27439223	      2.14916931	    -11.74145701	     -0.04892451	      1.20742734	     -0.10748956	     -0.47833990	     -0.33547656	      0.95025916	      0.00000000	      5.12125169	      3.93926589	      0.00000000	     -1.10676368	      4.80026154	    -11.64189061	      0.00000000	     -0.51980364	     -0.45275021	      0.00000000	     -0.65660317	      0.00439936	     -1.39419765	      8.62492464	     -5.30692829	     11.90723574	     22.11640370	     69.81887883	      7.03643133	     -8.48231678	     16.69803714	     25.49134017	     58.86720400
      4.30000000	     -3.19864174	      2.15114693	    -11.59523116	     -0.04931500	      1.20510439	     -0.10881675	     -0.66472008	     -0.43057861	      0.48984870	      0.00000000	      5.36345276	      4.17311094	      0.00000000	     -1.25234932	      4.87994950	    -11.65025413	      0.00000000	      0.10849187	      0.18625680	      0.00000000	     -0.52880273	      0.15020884	     -1.89769045	      8.39798365	     -5.13989873	     10.62468135	     20.79307523	     69.84368109	      6.74458024	     -8.04717919	     16.64782406	     23.66597247	     59.36658210
      4.31666670	     -3.08733479	      2.11976154	    -11.57399357	     -0.04907019	      1.20616239	     -0.10784809	     -0.86604571	     -0.46332424	      0.45238272	      0.00000000	      5.53996579	      4.07237875	      0.00000000	     -1.40908132	      4.91193490	    -11.70224475	      0.00000000	      0.21447970	      0.13570417	      0.00000000	     -0.55760283	      0.24730716	     -1.99721190	      7.75856253	     -5.42765670	     10.53605529	     20.53295102	     69.84979207	      6.21843278	     -7.85549761	     16.69130039	     23.48119642	     59.41404250
      4.33333330	     -2.96757064	      2.06754353	    -11.56363303	     -0.04956844	      1.19864830	     -0.10636342	     -1.06849476	     -0.44321538	      0.43524637	      0.00000000	      5.88016120	      3.91048597	      0.00000000	     -1.55742781	      4.91013732	    -11.67194587	      0.00000000	      0.62244350	      0.04729777	      0.00000000	     -0.60154461	      0.35895291	     -2.09918394	      7.16354102	     -5.64219318	     10.42413098	     20.26793064	     69.85383707	      5.65645244	     -7.70562931	     16.72048835	     23.18793460	     59.47028741
      4.35000000	     -2.97486557	      2.08580846	    -11.62149163	     -0.05236741	      1.19877320	     -0.10565805	     -1.02793971	     -0.42879871	      0.40436570	      0.00000000	      5.97664615	      3.84646094	      0.00000000	     -1.48958397	      4.89963592	    -11.64949063	      0.00000000	      0.73555000	      0.02844133	      0.00000000	     -0.93770130	      0.34680986	     -2.15474631	      6.74647559	     -5.78247693	     10.39534267	     20.09368781	     69.85141407	      5.24238271	     -7.66292334	     16.74256132	     23.01701516	     59.48123548
      4.36666670	     -2.92785258	      2.08898220	    -11.58333030	     -0.05534904	      1.20288966	     -0.10572725	     -1.02184920	     -0.39854939	      0.43152640	      0.00000000	      6.09668308	      3.79277353	      0.00000000	     -1.44585697	      4.87728917	    -11.63111430	      0.00000000	      0.86732758	     -0.00250170	      0.00000000	     -1.21929206	      0.31016999	     -2.19587403	      6.29383943	     -5.95381360	     10.36114873	     19.90636234	     69.84777015	      4.72568430	     -7.63592949	     16.76592869	     22.80492200	     59.49255490
      4.38333330	     -2.87049406	      2.11349024	    -11.56144200	     -0.05538006	      1.20836372	     -0.10556089	     -1.03427540	     -0.36575175	      0.45059760	      0.00000000	      6.19208933	      3.74079479	      0.00000000	     -1.42718972	      4.86356788	    -11.62600401	      0.00000000	      0.94661314	     -0.02666649	      0.00000000	     -1.47038977	      0.27294602	     -2.23172542	      5.84465551	     -6.09850252	     10.32982100	     19.72157330	     69.84384950	      4.19530778	     -7.61110420	     16.78817029	     22.58256177	     59.50366488
      4.40000000	     -2.83147334	      2.13664550	    -11.51995250	     -0.05627444	      1.20749839	     -0.10466927	     -1.05690089	     -0.30676555	      0.46695973	      0.00000000	      6.27091312	      3.69314570	      0.00000000	     -1.41278439	      4.85813213	    -11.63861052	      0.00000000	      1.00076986	     -0.05517645	      0.00000000	     -1.73399416	      0.24153616	     -2.23890920	      5.41928809	     -6.20786802	     10.30297383	     19.54788199	     69.84013978	      3.66182607	     -7.64337170	     16.80274623	     22.35117513	     59.51408203
      4.41666670	     -2.66986627	      2.11956181	    -11.51830547	     -0.05643228	      1.20278738	     -0.10461557	     -1.25533248	     -0.22771374	      0.53279054	      0.00000000	      6.49711560	      3.54410144	      0.00000000	     -1.57599780	      4.84692273	    -11.69762841	      0.00000000	      1.13385605	     -0.14520230	      0.00000000	     -1.78061983	      0.23449216	     -2.36930765	      4.93157978	     -6.29932059	     10.21160725	     19.30813586	     69.83131609	      3.03603895	     -7.71479659	     16.79934771	     21.93907696	     59.56039930
      4.43333330	     -2.71435405	      2.12984123	    -11.42809791	     -0.05849486	      1.20013537	     -0.10415718	     -1.16970596	     -0.14028663	      0.59665301	      0.00000000	      6.55253795	      3.53412318	      0.00000000	     -1.42816775	      4.80916729	    -11.72003258	      0.00000000	      1.17407188	     -0.17311376	      0.00000000	     -2.18205755	      0.15640854	     -2.39930188	      4.64359626	     -6.41115779	     10.18518668	     19.16609258	     69.82703803	      2.69947650	     -7.77513964	     16.80331108	     21.76490872	     59.57012959
      4.45000000	     -2.73604665	      2.13592749	    -11.36362545	     -0.05818946	      1.20090931	     -0.10530791	     -1.11369005	     -0.10335837	      0.67258843	      0.00000000	      6.61079113	      3.51900140	      0.00000000	     -1.31488552	      4.78541607	    -11.73209249	      0.00000000	      1.21400228	     -0.20141951	      0.00000000	     -2.54717875	      0.15077789	     -2.44444990	      4.31202930	     -6.54922143	     10.15611720	     19.01208250	     69.82137777	      2.34417934	     -7.89368978	     16.80052630	     21.57764885	     59.57918074
